<svg xmlns="http://www.w3.org/2000/svg" viewBox="0 0 512 512">
  <defs>
    <linearGradient id="coffeeGradient" x1="0%" y1="0%" x2="100%" y2="100%">
      <stop offset="0%" style="stop-color:#bfa094;stop-opacity:1" />
      <stop offset="100%" style="stop-color:#43302b;stop-opacity:1" />
    </linearGradient>
  </defs>
  <!-- Background shape (optional, can be transparent) -->
  <rect width="512" height="512" rx="128" fill="url(#coffeeGradient)" fill-opacity="0.1" />
  
  <!-- Abstract Coffee Cup / S shape -->
  <path d="M360 220c0-68-52-120-120-120s-120 52-120 120c0 48 26 90 64 110v12c0 16 12 30 28 30h56c16 0 28-14 28-30v-12c38-20 64-62 64-110z" 
        fill="url(#coffeeGradient)" />
  <path d="M240 160c-22 0-40 18-40 40s18 40 40 40 40-18 40-40-18-40-40-40z" 
        fill="#ffffff" fill-opacity="0.9" />
  <!-- Steam / Snap lines -->
  <path d="M280 80c10-20 40-20 50 0s-20 40-30 20z" fill="#bfa094" />
  <path d="M240 60c10-20 40-20 50 0s-20 40-30 20z" fill="#43302b" />
</svg>
